<?xml version="1.0" encoding="UTF-8" standalone="no"?>
<!DOCTYPE svg PUBLIC "-//W3C//DTD SVG 1.1//EN"
 "http://www.w3.org/Graphics/SVG/1.1/DTD/svg11.dtd">
<!-- Generated by graphviz version 2.47.3 (20210619.1520)
 -->
<!-- Title: dependencies Pages: 1 -->
<svg width="522pt" height="318pt"
 viewBox="0.00 0.00 522.00 317.80" xmlns="http://www.w3.org/2000/svg" xmlns:xlink="http://www.w3.org/1999/xlink">
<g id="graph0" class="graph" transform="scale(1 1) rotate(0) translate(4 313.8)">
<title>dependencies</title>
<polygon fill="white" stroke="transparent" points="-4,4 -4,-313.8 518,-313.8 518,4 -4,4"/>
<text text-anchor="middle" x="257" y="-8.2" font-family="sans-serif" font-size="14.00">dependencies</text>
<g id="clust1" class="cluster">
<title>cluster_AppModule</title>
<polygon fill="none" stroke="black" stroke-dasharray="1,5" points="88,-176.8 88,-301.8 346,-301.8 346,-176.8 88,-176.8"/>
</g>
<g id="clust3" class="cluster">
<title>cluster_AppModule_imports</title>
<polygon fill="none" stroke="black" points="96,-184.8 96,-236.8 338,-236.8 338,-184.8 96,-184.8"/>
</g>
<g id="clust7" class="cluster">
<title>cluster_BreweriesModule</title>
<polygon fill="none" stroke="black" stroke-dasharray="1,5" points="8,-100.8 8,-168.8 198,-168.8 198,-100.8 8,-100.8"/>
</g>
<g id="clust12" class="cluster">
<title>cluster_BreweriesModule_providers</title>
<polygon fill="none" stroke="black" points="16,-108.8 16,-160.8 190,-160.8 190,-108.8 16,-108.8"/>
</g>
<g id="clust13" class="cluster">
<title>cluster_DbModule</title>
<polygon fill="none" stroke="black" stroke-dasharray="1,5" points="370,-32.8 370,-244.8 506,-244.8 506,-32.8 370,-32.8"/>
</g>
<g id="clust16" class="cluster">
<title>cluster_DbModule_exports</title>
<polygon fill="none" stroke="black" points="384,-184.8 384,-236.8 478,-236.8 478,-184.8 384,-184.8"/>
</g>
<g id="clust18" class="cluster">
<title>cluster_DbModule_providers</title>
<polygon fill="none" stroke="black" points="378,-40.8 378,-92.8 498,-92.8 498,-40.8 378,-40.8"/>
</g>
<g id="clust19" class="cluster">
<title>cluster_UsersModule</title>
<polygon fill="none" stroke="black" stroke-dasharray="1,5" points="206,-100.8 206,-168.8 362,-168.8 362,-100.8 206,-100.8"/>
</g>
<g id="clust24" class="cluster">
<title>cluster_UsersModule_providers</title>
<polygon fill="none" stroke="black" points="214,-108.8 214,-160.8 354,-160.8 354,-108.8 214,-108.8"/>
</g>
<!-- BreweriesModule -->
<g id="node1" class="node">
<title>BreweriesModule</title>
<polygon fill="#8dd3c7" stroke="black" points="220.29,-228.8 217.29,-232.8 196.29,-232.8 193.29,-228.8 103.71,-228.8 103.71,-192.8 220.29,-192.8 220.29,-228.8"/>
<text text-anchor="middle" x="162" y="-206.6" font-family="Times,serif" font-size="14.00">BreweriesModule</text>
</g>
<!-- AppModule -->
<g id="node3" class="node">
<title>AppModule</title>
<polygon fill="#8dd3c7" stroke="black" points="264.66,-293.8 261.66,-297.8 240.66,-297.8 237.66,-293.8 181.34,-293.8 181.34,-257.8 264.66,-257.8 264.66,-293.8"/>
<text text-anchor="middle" x="223" y="-271.6" font-family="Times,serif" font-size="14.00">AppModule</text>
</g>
<!-- BreweriesModule&#45;&gt;AppModule -->
<g id="edge1" class="edge">
<title>BreweriesModule&#45;&gt;AppModule</title>
<path fill="none" stroke="black" d="M200.66,-228.91C200.66,-228.91 200.66,-247.79 200.66,-247.79"/>
<polygon fill="black" stroke="black" points="197.16,-247.79 200.66,-257.79 204.16,-247.79 197.16,-247.79"/>
</g>
<!-- UsersModule -->
<g id="node2" class="node">
<title>UsersModule</title>
<polygon fill="#8dd3c7" stroke="black" points="329.92,-228.8 326.92,-232.8 305.92,-232.8 302.92,-228.8 238.08,-228.8 238.08,-192.8 329.92,-192.8 329.92,-228.8"/>
<text text-anchor="middle" x="284" y="-206.6" font-family="Times,serif" font-size="14.00">UsersModule</text>
</g>
<!-- UsersModule&#45;&gt;AppModule -->
<g id="edge2" class="edge">
<title>UsersModule&#45;&gt;AppModule</title>
<path fill="none" stroke="black" d="M251.56,-228.91C251.56,-228.91 251.56,-247.79 251.56,-247.79"/>
<polygon fill="black" stroke="black" points="248.06,-247.79 251.56,-257.79 255.06,-247.79 248.06,-247.79"/>
</g>
<!-- BreweriesService -->
<g id="node4" class="node">
<title>BreweriesService</title>
<ellipse fill="#fdb462" stroke="black" cx="103" cy="-134.8" rx="79.27" ry="18"/>
<text text-anchor="middle" x="103" y="-130.6" font-family="Times,serif" font-size="14.00">BreweriesService</text>
</g>
<!-- BreweriesService&#45;&gt;BreweriesModule -->
<g id="edge3" class="edge">
<title>BreweriesService&#45;&gt;BreweriesModule</title>
<path fill="none" stroke="black" d="M142.99,-150.55C142.99,-150.55 142.99,-182.67 142.99,-182.67"/>
<polygon fill="black" stroke="black" points="139.49,-182.67 142.99,-192.67 146.49,-182.67 139.49,-182.67"/>
</g>
<!-- DbService  -->
<g id="node5" class="node">
<title>DbService </title>
<polygon fill="#fb8072" stroke="black" points="470.09,-228.8 391.91,-228.8 391.91,-192.8 470.09,-192.8 470.09,-228.8"/>
<text text-anchor="middle" x="431" y="-206.6" font-family="Times,serif" font-size="14.00">DbService </text>
</g>
<!-- DbModule -->
<g id="node6" class="node">
<title>DbModule</title>
<polygon fill="#8dd3c7" stroke="black" points="469.16,-152.8 466.16,-156.8 445.16,-156.8 442.16,-152.8 392.84,-152.8 392.84,-116.8 469.16,-116.8 469.16,-152.8"/>
<text text-anchor="middle" x="431" y="-130.6" font-family="Times,serif" font-size="14.00">DbModule</text>
</g>
<!-- DbModule&#45;&gt;UsersModule -->
<g id="edge6" class="edge">
<title>DbModule&#45;&gt;UsersModule</title>
<path fill="none" stroke="black" d="M392.49,-134.8C378.52,-134.8 366.09,-134.8 366.09,-134.8 366.09,-134.8 366.09,-210.8 366.09,-210.8 366.09,-210.8 339.85,-210.8 339.85,-210.8"/>
<polygon fill="black" stroke="black" points="339.85,-207.3 329.85,-210.8 339.85,-214.3 339.85,-207.3"/>
</g>
<!-- DbModule&#45;&gt;DbService  -->
<g id="edge4" class="edge">
<title>DbModule&#45;&gt;DbService </title>
<path fill="none" stroke="black" stroke-dasharray="5,2" d="M431,-152.81C431,-152.81 431,-182.65 431,-182.65"/>
<polygon fill="black" stroke="black" points="427.5,-182.65 431,-192.65 434.5,-182.65 427.5,-182.65"/>
</g>
<!-- DbService -->
<g id="node7" class="node">
<title>DbService</title>
<ellipse fill="#fdb462" stroke="black" cx="438" cy="-66.8" rx="51.58" ry="18"/>
<text text-anchor="middle" x="438" y="-62.6" font-family="Times,serif" font-size="14.00">DbService</text>
</g>
<!-- DbService&#45;&gt;DbModule -->
<g id="edge5" class="edge">
<title>DbService&#45;&gt;DbModule</title>
<path fill="none" stroke="black" d="M431,-84.67C431,-84.67 431,-106.34 431,-106.34"/>
<polygon fill="black" stroke="black" points="427.5,-106.34 431,-116.34 434.5,-106.34 427.5,-106.34"/>
</g>
<!-- UsersService -->
<g id="node8" class="node">
<title>UsersService</title>
<ellipse fill="#fdb462" stroke="black" cx="284" cy="-134.8" rx="61.95" ry="18"/>
<text text-anchor="middle" x="284" y="-130.6" font-family="Times,serif" font-size="14.00">UsersService</text>
</g>
<!-- UsersService&#45;&gt;UsersModule -->
<g id="edge7" class="edge">
<title>UsersService&#45;&gt;UsersModule</title>
<path fill="none" stroke="black" d="M284,-152.81C284,-152.81 284,-182.65 284,-182.65"/>
<polygon fill="black" stroke="black" points="280.5,-182.65 284,-192.65 287.5,-182.65 280.5,-182.65"/>
</g>
</g>
</svg>
